<?xml version="1.0" encoding="utf-8"?>
<!-- Generator: Adobe Illustrator 27.3.1, SVG Export Plug-In . SVG Version: 6.00 Build 0)  -->
<svg version="1.1" id="Layer_1" xmlns="http://www.w3.org/2000/svg" xmlns:xlink="http://www.w3.org/1999/xlink" x="0px" y="0px"
	 viewBox="0 0 350.93 305" style="enable-background:new 0 0 350.93 305;" xml:space="preserve">
<style type="text/css">
	.st0{fill:#FFFFFF;}
</style>
<g>
	<path d="M346.03,96.87c-0.32,0.31-0.79,0.57-0.95,0.95c-5.22,12.43-12.95,23.05-22.99,32.02c-6.64,5.93-14.04,10.7-22.09,14.47
		c-1.45,0.68-1.74,0.54-2.9-0.56c-4.18-3.96-8.42-7.85-12.64-11.77c-6.18-5.73-12.36-11.46-18.53-17.2
		c-0.88-0.82-1.76-1.65-2.9-2.72c0,1.38-0.03,2.4,0.01,3.42c0.12,3.56,0.28,7.12,0.4,10.69c0.11,3.38,0.2,6.75,0.25,10.13
		c0.11,7.5,0.18,15,0.27,22.5c0.16,13.18,0.44,26.36,0.47,39.55c0.03,16.23-0.13,32.46-0.23,48.68c-0.06,9.92-0.15,19.83-0.29,29.75
		c-0.09,6.27-0.29,12.54-0.42,18.82c-0.02,0.76-0.38,1.08-1.06,1.15c-4.2,0.45-8.4,0.9-12.6,1.33c-3.94,0.41-7.89,0.82-11.84,1.2
		c-2.88,0.28-5.76,0.48-8.64,0.78c-7.73,0.81-15.49,0.7-23.25,0.68c-13.04-0.03-26.08-0.1-39.12-0.13c-3.01-0.01-6.02,0.2-9.02,0.09
		c-4.45-0.16-8.89-0.48-13.33-0.8c-3.7-0.27-7.39-0.62-11.08-0.95c-3.1-0.28-6.2-0.58-9.3-0.91c-3.79-0.41-7.59-0.81-11.37-1.3
		c-5.18-0.68-10.34-1.45-15.51-2.15c-0.65-0.09-1.34-0.08-1.99,0c-1.19,0.15-1.64-0.18-1.68-1.39c-0.07-2.11-0.14-4.23-0.18-6.34
		c-0.17-8.84-0.41-17.67-0.46-26.51c-0.12-21.13-0.2-42.26-0.19-63.4c0-8.5,0.28-17,0.44-25.5c0.14-7.65,0.23-15.3,0.45-22.94
		c0.2-7.01,0.54-14.02,0.81-21.03c0.06-1.6,0.01-3.19,0.08-4.79c0.14-3.63,0.32-7.26,0.48-10.89c0.01-0.18,0-0.35,0-0.72
		c-0.36,0.17-0.63,0.25-0.84,0.39c-10.63,7.41-21.26,14.82-31.88,22.24c-3.17,2.21-6.35,4.39-9.49,6.64
		c-1.44,1.03-2.88,1.09-4.39,0.35c-5.56-2.72-10.71-6.04-15.55-9.92c-9.11-7.3-16.12-16.26-21.31-26.67
		c-0.99-1.99-1.81-4.06-2.72-6.09c-0.43-0.95-0.13-1.55,0.81-1.93c0.37-0.15,0.75-0.34,1.05-0.6c9.23-8.12,18.65-16.03,27.61-24.44
		c10.37-9.74,20.39-19.84,30.41-29.93c6.36-6.4,12.45-13.07,18.62-19.65c1.55-1.65,2.98-3.41,4.42-5.16
		c0.57-0.69,1.2-0.97,2.09-1.01c7.34-0.38,14.68-0.81,22.01-1.21c1-0.06,2-0.12,3.01-0.11c1.6,0.02,3.03-0.58,4.47-1.13
		c2.71-1.03,5.35-0.87,7.98,0.31c0.97,0.44,1.51,1.06,1.66,2.15c0.91,6.68,3.36,12.8,6.88,18.51c3.53,5.74,7.84,10.83,13.32,14.81
		c6,4.35,12.64,7.23,20.05,8.26c3.87,0.54,7.74,0.79,11.65,0.44c7.49-0.67,14.39-3.03,20.75-7.01
		c10.02-6.27,16.87-15.06,20.63-26.22c0.91-2.69,1.35-5.53,2.03-8.29c0.11-0.46,0.3-0.92,0.55-1.32c2.04-3.17,6.3-4.21,9.34-1.9
		c2.08,1.58,4.18,1.5,6.5,1.42c3.7-0.12,7.41-0.01,11.12-0.05c1.68-0.02,3.38,0.59,5.04-0.24c0.27-0.14,0.87,0.12,1.18,0.36
		c1.22,0.97,2.41,1.98,3.57,3.02c7.97,7.08,16.08,14.01,23.85,21.29c9.38,8.78,18.57,17.77,27.64,26.87
		c6.81,6.84,13.33,13.97,19.92,21.02c2.84,3.04,5.53,6.21,8.29,9.31c0.16,0.18,0.42,0.29,0.64,0.43
		C346.03,96.27,346.03,96.57,346.03,96.87z M93.01,18.72c-0.54,0.51-0.85,0.76-1.11,1.05c-4.13,4.52-8.22,9.09-12.41,13.56
		c-4.95,5.29-9.83,10.66-15.02,15.69c-11.12,10.78-22.33,21.46-33.68,32c-6.01,5.58-12.37,10.78-18.59,16.14
		c-0.56,0.48-0.95,0.88-0.55,1.68c1.35,2.68,2.54,5.45,4.01,8.06c4.08,7.28,9.24,13.7,15.45,19.3c5.55,5,11.67,9.16,18.37,12.46
		c0.75,0.37,1.33,0.39,2.04-0.11c8.53-6,17.08-11.97,25.63-17.95c5.54-3.87,11.07-7.74,16.62-11.6c1-0.7,1.72-1.45,1.54-2.82
		c-0.11-0.83,0.09-1.81,1.14-1.82c1.08-0.01,1.17,0.93,1.15,1.8c0,0.11,0,0.22,0,0.33c-0.15,3.74-0.32,7.48-0.44,11.23
		c-0.06,1.74,0.01,3.49-0.05,5.24c-0.27,7.72-0.59,15.43-0.84,23.15c-0.12,3.78-0.11,7.57-0.19,11.36
		c-0.22,10.58-0.65,21.16-0.66,31.74c-0.05,33.91-0.33,67.82,0.45,101.73c0.02,0.87,0.31,1.29,1.17,1.41
		c3.19,0.45,6.37,0.99,9.57,1.37c6.11,0.73,12.22,1.4,18.33,2.05c5.09,0.54,10.17,1.09,15.27,1.51c4.99,0.41,9.99,0.73,15,0.94
		c9.98,0.41,19.96,0.89,29.95,1.02c8.43,0.11,16.86-0.15,25.29-0.43c6.3-0.21,12.6-0.69,18.9-1.08c2.55-0.16,5.1-0.4,7.65-0.62
		c2.66-0.23,5.32-0.44,7.98-0.71c3.17-0.33,6.33-0.7,9.49-1.07c1.69-0.2,3.38-0.62,5.07-0.63c1.29-0.01,1.57-0.54,1.6-1.61
		c0.06-2.64,0.19-5.27,0.23-7.91c0.1-6.65,0.16-13.29,0.26-19.94c0.11-7.46,0.31-14.93,0.33-22.39c0.06-21.1,0.12-42.19,0.05-63.29
		c-0.04-10.8-0.39-21.61-0.57-32.41c-0.12-7.09-0.17-14.18-0.32-21.27c-0.14-6.64-0.38-13.28-0.57-19.92
		c-0.02-0.77,0.11-1.47,1.07-1.49c0.92-0.02,1.33,0.62,1.42,1.42c0.08,0.77-0.05,1.57,0.06,2.33c0.07,0.5,0.27,1.09,0.61,1.43
		c1.88,1.84,3.82,3.63,5.76,5.42c6.69,6.17,13.38,12.34,20.07,18.5c2.9,2.67,5.8,5.33,8.7,7.99c0.44,0.41,0.85,0.73,1.57,0.38
		c8-3.96,15.42-8.74,21.99-14.82c8.98-8.31,15.93-18.05,20.87-29.24c0.5-1.13,0.35-1.9-0.46-2.78c-4.15-4.46-8.16-9.04-12.39-13.43
		c-7.65-7.94-15.3-15.9-23.17-23.62c-9.14-8.97-18.48-17.75-27.83-26.5c-4.77-4.46-9.76-8.69-14.65-13.02
		c-0.26-0.23-0.58-0.38-1.09-0.72c-0.1,2.17-0.17,4.09-0.28,6.01c-0.35,6.15-0.7,12.29-1.07,18.44c-0.14,2.37-0.3,4.74-0.45,7.11
		c-0.05,0.7-0.42,1.11-1.13,1.12c-0.71,0.01-1.11-0.39-1.15-1.09c-0.03-0.55,0-1.11,0.03-1.67c0.2-3.48,0.42-6.96,0.61-10.44
		c0.12-2.15,0.21-4.3,0.3-6.45c0.2-4.45,0.39-8.89,0.6-13.34c0.03-0.66-0.24-0.88-0.89-0.96c-4.99-0.62-9.99-0.72-15-0.32
		c-3.22,0.26-3.21,0.29-3.89,3.55c-1.99,9.45-5.95,18.03-11.88,25.6c-5.12,6.54-11.32,11.98-18.61,16.06
		c-10.64,5.94-22.02,8.88-34.26,7.98c-5.07-0.37-10.08-1.22-14.92-2.82c-5.99-1.97-11.58-4.76-16.74-8.42
		c-7.54-5.35-13.63-12.06-18.26-20.01c-3.66-6.28-6.21-13.03-7.48-20.23c-0.28-1.61-0.33-1.66-2.02-1.57
		c-6.04,0.29-12.08,0.62-18.12,0.94c-0.22,0.01-0.44,0.07-0.66,0.09c-2.68,0.35-2.62,0.38-2.34,3.17c0.36,3.62,0.56,7.25,0.82,10.87
		c0.21,2.85,0.41,5.69,0.59,8.54c0.12,1.91,0.22,3.81,0.32,5.71c-1.96,0.16-2.25,0.01-2.38-1.75c-0.39-5.1-0.71-10.21-1.06-15.31
		C93.5,25.45,93.26,22.28,93.01,18.72z M120.45,16.69c0.24,0.64,0.47,1.1,0.59,1.6c0.96,4.01,2.06,7.96,3.63,11.79
		c2.25,5.48,5.34,10.47,9.07,14.99c2.65,3.21,5.78,6.06,8.93,8.79c3.8,3.3,8.13,5.87,12.69,7.99c6.6,3.07,13.58,4.8,20.85,5.15
		c9.64,0.47,18.92-1.07,27.78-5.08c8.4-3.81,15.57-9.29,21.48-16.28c3.03-3.58,5.62-7.54,7.68-11.84
		c2.47-5.15,4.57-10.39,5.52-16.05c0.1-0.58-0.01-1.27-0.24-1.82c-0.49-1.17-2.72-2.3-4.02-2.16c-1.67,0.19-3.06,1.33-3.47,2.87
		c-0.22,0.83-0.45,1.65-0.63,2.48c-1.03,4.86-2.77,9.49-5.1,13.83c-2.84,5.27-6.33,10.12-11.04,13.96c-2.21,1.8-4.36,3.72-6.76,5.25
		c-5.86,3.72-12.24,6.18-19.14,7.18c-8.31,1.21-16.46,0.5-24.36-2.37c-6.84-2.49-12.96-6.26-18.1-11.41
		c-2.4-2.41-4.57-5.1-6.52-7.88c-2.48-3.52-4.47-7.36-5.87-11.46c-1.12-3.29-2.37-6.55-2.45-10.1c-0.01-0.24-0.33-0.56-0.59-0.68
		c-1.81-0.84-3.68-1.18-5.62-0.46C123.34,15.53,121.94,16.1,120.45,16.69z M330.13,80.46c0.06-0.07,0.13-0.14,0.19-0.22
		c-0.8-0.74-1.6-1.47-2.4-2.21c0.07-0.06,0.14-0.12,0.21-0.19C328.8,78.72,329.47,79.59,330.13,80.46z"/>
	<path d="M164.77,301.69c0.51-0.07,1.02-0.18,1.53-0.19c11.02-0.08,22.04-0.17,33.06-0.19c4.23-0.01,8.46,0.13,12.69,0.21
		c0.59,0.01,1.17,0.11,1.76,0.17C197.47,301.69,181.12,301.69,164.77,301.69z"/>
	<path class="st0" d="M330.13,80.46c-0.66-0.87-1.33-1.74-1.99-2.61c-0.07,0.06-0.14,0.12-0.21,0.19c0.8,0.74,1.6,1.47,2.4,2.21
		C330.26,80.32,330.2,80.39,330.13,80.46z"/>
</g>
</svg>
