<?xml version="1.0" encoding="UTF-8"?>
<svg id="Layer_1" data-name="Layer 1" xmlns="http://www.w3.org/2000/svg" viewBox="0 0 652.8 310.4">
  <path d="M445.06,38.15c.2,1.6,0,1-.9,1.3-19.4,5.7-41.4,8-61,13.6-1.1.3-2.5.5-3.4,1-3.2,1.7-10,17.8-13,21.5l8,26.2-18.4,45.9,3,22.7,13.1,2.3-31.1,34.1-25.5-7.4-.7-2-30.4-4-12.5-15.1c-.3-1.3.6-1,1.5-.9,5.7.8,11.7,3.1,17.5,3.6l25.5-10.9-29.6-60.7-19.7-18.6c-1.2-.3-2.2,2.6-2.7,3.5-5.1,10.5-9.5,21.4-14.5,31.9l2.5,45.4-25.4-38.8-6.6-60.4c-.5-1.7-3.3-1.4-3.6-1.8-.6-.7-1.8-15.2-2.8-18.2-1.3-4.4-5-9.1-6.6-13.4-.1-1.1,13.6-16,14.8-16.4,3.1-.4,6.2.1,9.3-.1,15-1.1,33-1.7,47.6-3.8,5.9-.9,10.6-4.9,16.3-6.2l69.6,2.5,79.7,23.2ZM359.86,19.35l-63.6-2.5-10.3,4.8,3.6,5.1,52.5,5.8,3-1.4,14.8-11.8ZM428.16,38.75l-2-1.4-59.1-17.3-19.1,13.7,31,15.7,49.2-10.7ZM245.26,26.15l30.4,8.1,9-6.5-4.1-5.2-35.3,3.6ZM272.16,37.45l-39.3-10.5c-1.9-.3-7.4-.5-8.9.2-2.6,1.2-7,8.2-9.4,10.3l30.7,6.3-26,10,1.6,13.1,28.7,4.8,22.6-34.2ZM363.56,72.45l11.4-19.7-30.7-15.7-29-3.3-21.1,11.8.4,1.3,12.6,8,56.4,17.6ZM276.26,39.95l-22.8,33.6,12.8,10.8,14-12.9,6.9-23.3c.3-.8,0-1.1-.5-1.7-.5-.4-9.8-6.6-10.4-6.5ZM228.96,44.35l-14.4-2.5c-.3.3,2.6,7.2,3.4,7.4,3.5-1.8,8.1-2.3,11-4.9ZM354.86,74.45l-49.8-15.7-13.8-8.8-6,20.4.7,1.8,19.2,12.2,49.7-9.9ZM247.76,75.65l-21.8-3.6-1.3.8,7,58.1,15.2,24.3c1.6.2.7-.4.6-1.3-2.3-20-1.1-38.1-.3-57.9.3-6.8.1-13.6.6-20.4ZM300.96,86.95c-4-.9-15.5-11.6-18.5-11.3-1.5.2-10.8,10-12.9,11.6,5.1,3.7,9.4,8.8,14.1,12.8,1,.9,3.8,3.4,4.9,3.2l12.4-16.3ZM353.66,142.75l16.3-41.1-7.5-23.8-53.9,10.4,45.1,54.5ZM250.26,114.55l13-26.6-10.8-9.1-2.2,35.7ZM350.46,146.45l-47-55.7-11.6,15-.2,2,35.9,48.1,1.3.5,21.6-9.9ZM319.76,167.15c1.2,1.1,5.1-6.9,4.8-8.2l-22.3-29.4,17.5,37.6ZM355.66,173.95l-3.3-23.7-21,10,10.4,38.9,21.9-23.5-8-1.7ZM337.96,201.65l-11.3-36.3c-5.3,9-4.6,20.1-6.3,30.3l17.6,6ZM316.06,193.45l2.5-19.4-26.8,11.2-9.5-1.8,4.2,5.6,29.6,4.4Z"/>
  <g>
    <path d="M18.86,235.45v56.4h29.5l.5,5.4,26.4-61.7,6.4.2,26.8,62.1-7.3-.5-6.7-15.8-31.4-.2-7.3,16.6H12.76v-62.3h6.1s0-.2,0-.2ZM91.86,275.75l-12.9-32.8-14,32.8h26.9Z"/>
    <polygon points="417.26 235.45 454.56 288.05 454.56 235.45 460.96 235.45 460.96 297.75 453.26 297.75 415.86 244.55 415.86 297.75 409.46 297.75 409.46 235.45 417.26 235.45"/>
    <polygon points="523.36 288.05 523.36 235.45 529.76 235.45 529.76 297.75 521.96 297.75 485.96 246.25 484.06 244.55 484.06 297.75 478.16 297.75 478.16 235.45 485.96 235.45 523.36 288.05"/>
    <path d="M272.66,235.45c14.1,1.5,20.9,15.6,10.7,26.3l-6.2,3.2c14.7.8,18.8,19.1,7.8,27.9-2.4,1.9-8.9,4.8-11.8,4.8h-23.9v-62.3c7.5.7,16.1-.7,23.4.1ZM255.76,262.85h14.8c.4,0,3.9-1.1,4.6-1.3,7.7-3.3,8.5-14.2,1.3-18.5-.5-.3-4-1.7-4.2-1.7h-16.4l-.1,21.5h0ZM274.26,268.25c-5.6-.8-12.8.6-18.5,0v23.6h16.9c3.1,0,8.8-3.5,10.4-6.3,2.4-4,1.5-11.3-2.2-14.3-1.2-1-5.1-2.8-6.6-3Z"/>
    <path d="M141.56,235.45c20.9,2.5,20.3,30.8-.3,33l17.7,29.3h-8.1l-16.9-29h-10.5v29h-6.4v-62.3c7.8.6,17-.9,24.5,0ZM123.56,262.85h16.4c.3,0,3.8-1.2,4.4-1.5,7.4-3.6,7.8-14.6.4-18.3-.7-.3-4.4-1.7-4.8-1.7h-16.4v21.5h0Z"/>
    <path d="M329.06,235.45c21.1,2.4,20.8,31.1-.3,33l17.7,29.3-7.8-.5-17.2-28.5h-10.5v29h-5.9v-62.3c7.7.6,16.6-.9,24,0ZM311.06,262.85h16.4c.6,0,4.7-1.6,5.5-2,5.3-3.1,6.8-11.1,2.5-15.6-1.1-1.1-6.1-3.8-7.5-3.8h-16.9v21.4Z"/>
    <polygon points="395.96 235.45 395.96 241.35 363.76 241.35 363.76 262.25 393.86 262.25 393.86 268.25 363.76 268.25 363.76 291.85 397.06 291.85 397.06 297.75 357.36 297.75 357.36 235.45 395.96 235.45"/>
    <polygon points="585.16 235.45 585.16 241.35 552.86 241.35 552.86 262.25 582.96 262.25 582.96 268.25 552.86 268.25 552.86 291.85 586.16 291.85 586.16 297.75 546.46 297.75 546.46 235.45 585.16 235.45"/>
    <path d="M175.76,235.45v26.9l1.9-.5,28.4-26.4h8.9l-31.2,28.2,32.8,34.1h-8.9c-9.5-9.8-18.9-19.8-28.5-29.5-1.1-1.1-1.4-3.1-3.5-2.7v32.2h-6.4v-62.3h6.5Z"/>
    <path d="M639.96,235.45c-.2,1.9.7,4.5-.8,5.9h-20.1v56.4h-6.4v-56.4h-21v-5.9h48.3Z"/>
  </g>
</svg>