<?xml version="1.0" encoding="utf-8"?>
<!-- Generator: Adobe Illustrator 27.3.1, SVG Export Plug-In . SVG Version: 6.00 Build 0)  -->
<svg version="1.1" id="Layer_1" xmlns="http://www.w3.org/2000/svg" xmlns:xlink="http://www.w3.org/1999/xlink" x="0px" y="0px"
	 viewBox="0 0 800 800" style="enable-background:new 0 0 800 800;" xml:space="preserve">
<style type="text/css">
	.st0{fill:#FFFFFF;}
</style>
<path class="st0" d="M780.8,171.75c0.56,5.17,0.01,3.2-2.93,4.06c-62.24,18.34-132.72,25.6-195.54,43.47
	c-3.41,0.97-8.06,1.5-10.98,3.08c-10.34,5.57-32.17,56.98-41.6,69.01l25.58,83.89l-59.07,147.17l9.67,72.76l41.88,7.3l-99.85,109.17
	l-81.73-23.6l-2.36-6.34l-97.35-12.81l-40.02-48.36c-0.82-4.25,1.82-3.24,4.81-2.81c18.13,2.58,37.4,9.79,55.98,11.45l81.72-34.85
	L274.39,400l-63.06-59.5c-3.92-0.88-7.12,8.2-8.62,11.26c-16.45,33.5-30.46,68.47-46.36,102.25l7.89,145.47L82.82,475.09
	L61.52,281.5c-1.69-5.3-10.43-4.4-11.44-5.63c-1.88-2.27-5.89-48.63-8.88-58.4c-4.28-13.99-15.88-29.1-21.22-43.11
	c-0.3-3.53,43.47-51.3,47.29-52.43c9.84-1.32,19.85,0.28,29.69-0.43c48.04-3.49,105.71-5.4,152.43-12.25
	c18.77-2.75,34.12-15.75,52.38-19.92l222.98,8.08L780.8,171.75z M507.67,111.51l-203.88-8.11l-33.07,15.23l11.48,16.5l168.25,18.7
	l9.69-4.53L507.67,111.51z M726.58,173.72l-6.46-4.57l-189.43-55.42l-61.15,43.97l99.42,50.3L726.58,173.72z M140.18,133.55
	l97.47,25.88l28.84-20.83L253.4,122L140.18,133.55z M226.52,169.73l-126-33.67c-6.05-0.86-23.69-1.67-28.6,0.56
	c-8.28,3.76-22.33,26.29-30.16,33.08l98.39,20.08l-83.37,32.05l5.28,42.07l92.14,15.39L226.52,169.73z M519.4,281.92l36.4-63.01
	l-98.3-50.22l-92.91-10.68l-67.78,37.85l1.25,4.16l40.35,25.49L519.4,281.92z M239.72,177.8l-73.27,107.72l40.98,34.74l44.92-41.35
	l22.06-74.56c0.87-2.63-0.09-3.64-1.7-5.46C271.27,197.25,241.63,177.36,239.72,177.8z M87.95,191.84l-46.18-8.04
	c-0.96,0.89,8.3,23.22,10.96,23.62C63.86,201.77,78.79,200.24,87.95,191.84z M491.6,288.24l-159.7-50.17l-44.09-28.21l-19.26,65.39
	l2.18,5.93l61.4,39.16L491.6,288.24z M148.18,292.25l-69.8-11.65l-4.18,2.52l22.31,186.32l48.7,77.86c5.03,0.55,2.35-1.29,2.04-4.06
	c-7.22-64.1-3.55-122.14-0.98-185.66C147.15,335.85,146.56,313.95,148.18,292.25z M318.89,328.41
	c-12.78-3.04-49.83-37.22-59.16-36.25c-4.74,0.49-34.69,31.95-41.21,37.22c16.2,12.01,30.05,28.27,45.2,41.12
	c3.3,2.8,12.32,10.8,15.85,10.24L318.89,328.41z M487.57,507.11l52.22-131.73l-23.96-76.27l-172.82,33.3L487.57,507.11z
	 M156.25,416.74l41.59-85.38l-34.6-29.08L156.25,416.74z M477.55,519.14l-150.58-178.7l-37.2,48.23l-0.69,6.54l115.07,154.26
	l4.02,1.74L477.55,519.14z M379.16,585.43c3.98,3.62,16.29-22.25,15.26-26.17l-71.49-94.33L379.16,585.43z M494.01,607.15
	l-10.45-75.93l-67.36,32.04l33.26,124.6l70.26-75.32L494.01,607.15z M437.37,695.89l-36.1-116.47c-16.94,29-14.86,64.57-20.2,97.08
	L437.37,695.89z M367.08,669.8l8.03-62.27l-85.85,35.79l-30.61-5.65l13.6,18L367.08,669.8z"/>
</svg>
