<?xml version="1.0" encoding="UTF-8"?>
<svg id="Layer_1" data-name="Layer 1" xmlns="http://www.w3.org/2000/svg" viewBox="0 0 1080 420.77">
  <path d="M261.38,135.21c.18,1.7,0,1.05-.96,1.33-20.46,6.03-43.62,8.41-64.26,14.29-1.12.32-2.65.49-3.61,1.01-3.4,1.83-10.57,18.73-13.67,22.68l8.41,27.57-19.41,48.37,3.18,23.91,13.76,2.4-32.81,35.88-26.86-7.76-.78-2.08-31.99-4.21-13.15-15.89c-.27-1.4.6-1.06,1.58-.92,5.96.85,12.29,3.22,18.4,3.76l26.86-11.45-31.11-63.87-20.72-19.55c-1.29-.29-2.34,2.7-2.83,3.7-5.41,11.01-10.01,22.5-15.24,33.6l2.59,47.81-26.76-40.88-7-63.62c-.56-1.74-3.43-1.45-3.76-1.85-.62-.75-1.94-15.98-2.92-19.19-1.41-4.6-5.22-9.56-6.97-14.17-.1-1.16,14.29-16.86,15.54-17.23,3.23-.43,6.52.09,9.76-.14,15.79-1.15,34.74-1.78,50.09-4.03,6.17-.9,11.21-5.18,17.21-6.55l73.28,2.65,84.15,24.43ZM171.61,115.41l-67-2.66-10.87,5.01,3.77,5.42,55.29,6.15,3.19-1.49,15.62-12.42ZM243.56,135.85l-2.12-1.5-62.26-18.21-20.1,14.45,32.67,16.53,51.8-11.27ZM50.84,122.65l32.03,8.51,9.48-6.85-4.3-5.46-37.21,3.79ZM79.22,134.54l-41.41-11.07c-1.99-.28-7.78-.55-9.4.18-2.72,1.24-7.34,8.64-9.91,10.87l32.33,6.6-27.4,10.53,1.74,13.83,30.28,5.06,23.77-36ZM175.47,171.41l11.96-20.71-32.31-16.5-30.53-3.51-22.28,12.44.41,1.37,13.26,8.38,59.48,18.54ZM83.56,137.19l-24.08,35.4,13.47,11.42,14.76-13.59,7.25-24.5c.29-.86-.03-1.2-.56-1.79-.48-.54-10.22-7.08-10.84-6.93ZM33.68,141.81l-15.18-2.64c-.32.29,2.73,7.63,3.6,7.76,3.66-1.85,8.57-2.36,11.58-5.12ZM166.33,173.49l-52.48-16.49-14.49-9.27-6.33,21.49.72,1.95,20.18,12.87,52.41-10.55ZM53.47,174.81l-22.94-3.83-1.37.83,7.33,61.23,16,25.59c1.65.18.77-.42.67-1.33-2.37-21.07-1.17-40.14-.32-61.01.29-7.14.1-14.34.63-21.47ZM109.57,186.69c-4.2-1-16.37-12.23-19.44-11.91-1.56.16-11.4,10.5-13.54,12.23,5.32,3.95,9.88,9.29,14.86,13.51,1.08.92,4.05,3.55,5.21,3.36l12.92-17.2ZM165.01,245.42l17.16-43.29-7.87-25.07-56.8,10.94,47.51,57.41ZM56.13,215.72l13.67-28.06-11.37-9.56-2.3,37.62ZM161.72,249.37l-49.49-58.73-12.23,15.85-.23,2.15,37.82,50.7,1.32.57,22.8-10.54ZM129.38,271.16c1.31,1.19,5.35-7.31,5.02-8.6l-23.49-31,18.48,39.6ZM167.13,278.3l-3.43-24.95-22.14,10.53,10.93,40.95,23.09-24.75-8.45-1.77ZM148.51,307.46l-11.87-38.28c-5.57,9.53-4.88,21.22-6.64,31.9l18.5,6.37ZM125.41,298.89l2.64-20.46-28.21,11.76-10.06-1.86,4.47,5.91,31.16,4.64Z"/>
  <path d="M305.6,174.8v69.3h36.3l.65,6.6,32.44-75.81,7.86.21,32.97,76.25-8.91-.65-8.17-19.4-38.57-.3-9.02,20.35h-52.8v-76.56h7.26ZM395.36,224.3l-15.85-40.26-17.15,40.26h33Z"/>
  <polygon points="794.99 174.8 840.86 239.48 840.86 174.8 848.78 174.8 848.78 251.36 839.21 251.36 793.34 186.02 793.34 251.36 785.42 251.36 785.42 174.8 794.99 174.8"/>
  <polygon points="925.34 239.48 925.34 174.8 933.26 174.8 933.26 251.36 923.69 251.36 879.41 188.06 877.16 186.02 877.16 251.36 869.9 251.36 869.9 174.8 879.47 174.8 925.34 239.48"/>
  <path d="M617.45,174.8c17.26,1.83,25.62,19.17,13.2,32.34l-7.59,3.95c18.08.92,23.1,23.5,9.55,34.31-2.92,2.33-10.94,5.96-14.5,5.96h-29.37v-76.56c9.17.71,19.71-.95,28.71,0ZM596.66,208.46h18.15c.55,0,4.79-1.29,5.61-1.65,9.42-4.06,10.42-17.44,1.55-22.67-.56-.33-4.91-2.08-5.18-2.08h-20.13v26.4ZM619.43,215.06c-6.82-.97-15.71.72-22.77,0v29.04h20.79c3.87,0,10.79-4.3,12.77-7.69,2.89-4.93,1.9-13.92-2.72-17.62-1.45-1.16-6.32-3.49-8.08-3.73Z"/>
  <path d="M456.41,174.8c25.7,3.05,25,37.78-.32,40.58l21.77,35.98h-9.9l-20.79-35.64h-12.87v35.64h-7.92v-76.56c9.49.82,20.76-1.1,30.03,0ZM434.3,208.46h20.13c.39,0,4.68-1.52,5.4-1.86,9.12-4.4,9.59-17.95.46-22.48-.82-.41-5.35-2.06-5.86-2.06h-20.13v26.4Z"/>
  <path d="M686.75,174.8c25.93,2.91,25.61,38.16-.33,40.59l21.78,35.97-9.56-.66-21.13-34.97h-12.87v35.64h-7.26v-76.56c9.33.76,20.23-1.03,29.37,0ZM664.64,208.46h20.13c.74,0,5.78-1.95,6.74-2.5,6.55-3.84,8.39-13.69,3.1-19.21-1.31-1.36-7.51-4.69-9.17-4.69h-20.79v26.4Z"/>
  <polygon points="768.92 174.8 768.92 182.06 729.32 182.06 729.32 207.8 766.28 207.8 766.28 215.06 729.32 215.06 729.32 244.1 770.24 244.1 770.24 251.36 721.4 251.36 721.4 174.8 768.92 174.8"/>
  <polygon points="1001.24 174.8 1001.24 182.06 961.64 182.06 961.64 207.8 998.6 207.8 998.6 215.06 961.64 215.06 961.64 244.1 1002.56 244.1 1002.56 251.36 953.72 251.36 953.72 174.8 1001.24 174.8"/>
  <path d="M498.32,174.8v33l2.34-.63,34.95-32.37h10.89l-38.27,34.65,40.25,41.91h-10.89c-11.67-12.09-23.23-24.28-34.99-36.29-1.37-1.39-1.68-3.79-4.28-3.31v39.6h-7.92v-76.56h7.92Z"/>
  <path d="M1068.56,174.8c-.3,2.36.89,5.52-.99,7.26h-24.75v69.3h-7.92v-69.3h-25.74v-7.26h59.4Z"/>
</svg>