<?xml version="1.0" encoding="utf-8"?>
<!-- Generator: Adobe Illustrator 27.3.1, SVG Export Plug-In . SVG Version: 6.00 Build 0)  -->
<svg version="1.0" id="Layer_1" xmlns="http://www.w3.org/2000/svg" xmlns:xlink="http://www.w3.org/1999/xlink" x="0px" y="0px"
	 viewBox="0 0 450 120" style="enable-background:new 0 0 450 120;" xml:space="preserve">
<style type="text/css">
	.st0{fill:#998352;}
</style>
<g>
	<polygon class="st0" points="17.3,68.8 27.5,79 17.3,89.3 7.1,79 	"/>
	<polygon class="st0" points="433.4,68.8 443.6,79 433.4,89.3 423.2,79 	"/>
	<path class="st0" d="M46.3,52.2h12V57c0,0,11.7-8.6,22.4-7.2c0,0,11.8,1,16,11.6c0,0,3.5,8.6-11.9,17.5c0,0-9.5-10.8-9.5-10.9
		c0.3,0.3,3.3-0.7,3.6-0.9c2.3-0.8,4.7-1.9,6.4-3.6c0.9-0.9,1.6-2,2-3.2c0.5-1.6,0.9-3.5-0.4-4.9c-0.6-0.6-1.2-1.2-2-1.7
		c-2.4-1.5-5.3-1.7-8-0.9c-2,0.6-3.8,1.6-5.4,2.8c0,0-11.1,6.7-13.1,19.3l-0.3,30.3l-12-6.3V52.2z"/>
	<path class="st0" d="M158.6,103.6l-0.3-30.5c-1.8-19.7-20.5-23-20.5-23c-17.9-3.9-33.2,3.4-33.2,3.4l4.6,9.3
		c7.7-5.9,21.3-7.5,21.3-7.5c18.5-2.2,18.1,12.8,18.1,12.8c0.3,2.8-0.9,1.7-0.9,1.7c-5.2-4.2-14.9-3.8-14.9-3.8
		c-21.1,1.4-27.9,15.6-27.9,15.6c-1.9,4.4-1.1,7.2-1.1,7.2c5,15.3,22.6,14.3,22.6,14.3c13.7,0,20.9-6.1,20.9-6.1
		c1.6-0.9,1.2,2.4,1.2,2.4L158.6,103.6z M148.1,83.4c0,0-6.7,9.2-23.9,11.9c0,0-15,2.1-16.2-4.3c-0.1-0.5,0.1-1.1,0.3-1.5
		c0.4-1.4,1.1-2.8,2-4c2-2.7,4.6-4.9,7.5-6.6c1.6-1,3.3-1.9,5.2-2.6c0.7-0.2,1.3-0.4,2-0.6c5.7-1.3,11.9-1,17.4,1
		c0.7,0.3,1.4,0.6,2.1,0.9C144.3,77.5,150.6,79.9,148.1,83.4z"/>
	<path class="st0" d="M337.1,103.6l-0.3-30.5c-1.8-19.7-20.5-23-20.5-23c-17.9-3.9-33.2,3.4-33.2,3.4l4.6,9.3
		c7.7-5.9,21.3-7.5,21.3-7.5c18.5-2.2,18.1,12.8,18.1,12.8c0.3,2.8-0.9,1.7-0.9,1.7c-5.2-4.2-14.9-3.8-14.9-3.8
		c-21.1,1.4-27.9,15.6-27.9,15.6c-1.9,4.4-1.1,7.2-1.1,7.2c5,15.3,22.6,14.3,22.6,14.3c13.7,0,20.9-6.1,20.9-6.1
		c1.6-0.9,1.2,2.4,1.2,2.4L337.1,103.6z M326.6,83.4c0,0-6.7,9.2-23.9,11.9c0,0-15,2.1-16.2-4.3c-0.1-0.5,0.1-1.1,0.3-1.5
		c0.4-1.4,1.1-2.8,2-4c2-2.7,4.6-4.9,7.5-6.6c1.6-1,3.3-1.9,5.2-2.6c0.7-0.2,1.3-0.4,2-0.6c5.7-1.3,11.9-1,17.4,1
		c0.7,0.3,1.4,0.6,2.1,0.9C322.9,77.5,329.1,79.9,326.6,83.4z"/>
	<path class="st0" d="M167.5,14.5c0,0,2.8,0,2.8,0l8.2,6.1V34h19.8v7.6c0,0-19.7,0-19.7,0c0,4.6,0.1,9.2,0.1,13.8
		c0,8.5,0.1,17,0.1,25.5c0,2.8,0,5.7,0,8.5c0,3.4-0.2,7.1,2.7,9.5c3,2.4,6.5-0.3,8.6-2.5c0,0,3.5-3.7,3.3-16.2l12.6,7.2
		c0,0-4.5,12.7-18.1,15.7c-5.8,1.3-12.5-0.8-16.4-5.2c-2.8-3.1-4.1-6.6-4.1-10.7c0-2.5,0-5,0-7.5c0-7.7,0-15.4,0-23.1
		c0-8.3,0-16.6,0-24.9c0-5.3,0-10.5,0-15.8C167.5,15.8,167.5,14.5,167.5,14.5z"/>
	<path class="st0" d="M213.3,14.5h3.1c0,0,10.6,6.1,10.6,6.1c0.2,0.1,0.3,1.2,0.4,1.4c0.3,1.3,0.5,2.6,0.8,3.9
		c1,6.1,0.5,12.4,0.5,18.6c0,4.8,0,9.6,0.1,14.4c0,0.7,0,1.5,0,2.2c0,0,6.8-8.5,16.1-10.9c0,0,16-3.4,25.5,11.6
		c0,0,16.8,22.1-9,42.4l-10.5-6.4c0,0,12.6-10.3,14.1-20.9c0.7-5,1.3-10.2-0.9-14.9c-2.3-5-8-7.7-13.3-6.2c-3.2,0.9-6.3,2.2-9.1,4
		c-6.2,3.8-10.9,9.6-13.1,16.5v27.3l-11.8-6.2l-0.1-66.4C216.6,30.9,215.9,18.5,213.3,14.5z"/>
	<path class="st0" d="M346.3,52h10.9v7.9c0,0,12.1-13.1,26.8-9.7c0,0,17.8,2.6,20.3,24.8c0,0,2.6,15.6-12,31.1l-12.1-8
		c0,0,13.3-10.8,14.9-21.7c0,0,5.3-25.6-18.1-21.7c0,0-15.6,2.4-20.2,28.3l-0.1,22.4l-10.4-5.5V52z"/>
</g>
</svg>
