<?xml version="1.0" encoding="utf-8"?>
<!-- Generator: Adobe Illustrator 27.3.1, SVG Export Plug-In . SVG Version: 6.00 Build 0)  -->
<svg version="1.1" id="Layer_1" xmlns="http://www.w3.org/2000/svg" xmlns:xlink="http://www.w3.org/1999/xlink" x="0px" y="0px"
	 viewBox="0 0 652.8 310.4" style="enable-background:new 0 0 652.8 310.4;" xml:space="preserve">
<style type="text/css">
	.st0{fill:#FFFFFF;}
</style>
<g>
	<g>
		<path class="st0" d="M445,38c0.2,1.6,0,1-0.9,1.3c-19.4,5.7-41.4,8-61,13.6c-1.1,0.3-2.5,0.5-3.4,1c-3.2,1.7-10,17.8-13,21.5
			l8,26.2l-18.4,45.9l3,22.7l13.1,2.3l-31.1,34.1l-25.5-7.4l-0.7-2l-30.4-4l-12.5-15.1c-0.3-1.3,0.6-1,1.5-0.9
			c5.7,0.8,11.7,3.1,17.5,3.6l25.5-10.9l-29.6-60.7l-19.7-18.6c-1.2-0.3-2.2,2.6-2.7,3.5c-5.1,10.5-9.5,21.4-14.5,31.9l2.5,45.4
			l-25.4-38.8l-6.6-60.4c-0.5-1.7-3.3-1.4-3.6-1.8c-0.6-0.7-1.8-15.2-2.8-18.2c-1.3-4.4-5-9.1-6.6-13.4c-0.1-1.1,13.6-16,14.8-16.4
			c3.1-0.4,6.2,0.1,9.3-0.1c15-1.1,33-1.7,47.6-3.8c5.9-0.9,10.6-4.9,16.3-6.2l69.6,2.5L445,38z M359.8,19.2l-63.6-2.5l-10.3,4.8
			l3.6,5.1l52.5,5.8l3-1.4L359.8,19.2z M428.1,38.6l-2-1.4L367,19.9l-19.1,13.7l31,15.7L428.1,38.6z M245.2,26l30.4,8.1l9-6.5
			l-4.1-5.2L245.2,26z M272.1,37.3l-39.3-10.5c-1.9-0.3-7.4-0.5-8.9,0.2c-2.6,1.2-7,8.2-9.4,10.3l30.7,6.3l-26,10l1.6,13.1l28.7,4.8
			L272.1,37.3z M363.5,72.3l11.4-19.7l-30.7-15.7l-29-3.3l-21.1,11.8l0.4,1.3l12.6,8L363.5,72.3z M276.2,39.8l-22.8,33.6l12.8,10.8
			l14-12.9l6.9-23.3c0.3-0.8,0-1.1-0.5-1.7C286.1,45.9,276.8,39.7,276.2,39.8z M228.9,44.2l-14.4-2.5c-0.3,0.3,2.6,7.2,3.4,7.4
			C221.4,47.3,226,46.8,228.9,44.2z M354.8,74.3L305,58.6l-13.8-8.8l-6,20.4l0.7,1.8l19.2,12.2L354.8,74.3z M247.7,75.5l-21.8-3.6
			l-1.3,0.8l7,58.1l15.2,24.3c1.6,0.2,0.7-0.4,0.6-1.3c-2.3-20-1.1-38.1-0.3-57.9C247.4,89.1,247.2,82.3,247.7,75.5z M300.9,86.8
			c-4-0.9-15.5-11.6-18.5-11.3c-1.5,0.2-10.8,10-12.9,11.6c5.1,3.7,9.4,8.8,14.1,12.8c1,0.9,3.8,3.4,4.9,3.2L300.9,86.8z
			 M353.6,142.6l16.3-41.1l-7.5-23.8l-53.9,10.4L353.6,142.6z M250.2,114.4l13-26.6l-10.8-9.1L250.2,114.4z M350.4,146.3l-47-55.7
			l-11.6,15l-0.2,2l35.9,48.1l1.3,0.5L350.4,146.3z M319.7,167c1.2,1.1,5.1-6.9,4.8-8.2l-22.3-29.4L319.7,167z M355.6,173.8
			l-3.3-23.7l-21,10l10.4,38.9l21.9-23.5L355.6,173.8z M337.9,201.5l-11.3-36.3c-5.3,9-4.6,20.1-6.3,30.3L337.9,201.5z M316,193.3
			l2.5-19.4l-26.8,11.2l-9.5-1.8l4.2,5.6L316,193.3z"/>
	</g>
	<g>
		<path class="st0" d="M18.8,235.3v56.4h29.5l0.5,5.4l26.4-61.7l6.4,0.2l26.8,62.1l-7.3-0.5l-6.7-15.8L63,281.2l-7.3,16.6h-43v-62.3
			h6.1C18.8,235.5,18.8,235.3,18.8,235.3z M91.8,275.6l-12.9-32.8l-14,32.8H91.8z"/>
		<polygon class="st0" points="417.2,235.3 454.5,287.9 454.5,235.3 460.9,235.3 460.9,297.6 453.2,297.6 415.8,244.4 415.8,297.6 
			409.4,297.6 409.4,235.3 		"/>
		<polygon class="st0" points="523.3,287.9 523.3,235.3 529.7,235.3 529.7,297.6 521.9,297.6 485.9,246.1 484,244.4 484,297.6 
			478.1,297.6 478.1,235.3 485.9,235.3 		"/>
		<path class="st0" d="M272.6,235.3c14.1,1.5,20.9,15.6,10.7,26.3l-6.2,3.2c14.7,0.8,18.8,19.1,7.8,27.9c-2.4,1.9-8.9,4.8-11.8,4.8
			h-23.9v-62.3C256.7,235.9,265.3,234.5,272.6,235.3z M255.7,262.7h14.8c0.4,0,3.9-1.1,4.6-1.3c7.7-3.3,8.5-14.2,1.3-18.5
			c-0.5-0.3-4-1.7-4.2-1.7h-16.4L255.7,262.7L255.7,262.7z M274.2,268.1c-5.6-0.8-12.8,0.6-18.5,0v23.6h16.9c3.1,0,8.8-3.5,10.4-6.3
			c2.4-4,1.5-11.3-2.2-14.3C279.6,270.1,275.7,268.3,274.2,268.1z"/>
		<path class="st0" d="M141.5,235.3c20.9,2.5,20.3,30.8-0.3,33l17.7,29.3h-8.1l-16.9-29h-10.5v29H117v-62.3
			C124.8,235.9,134,234.4,141.5,235.3z M123.5,262.7h16.4c0.3,0,3.8-1.2,4.4-1.5c7.4-3.6,7.8-14.6,0.4-18.3
			c-0.7-0.3-4.4-1.7-4.8-1.7h-16.4L123.5,262.7L123.5,262.7z"/>
		<path class="st0" d="M329,235.3c21.1,2.4,20.8,31.1-0.3,33l17.7,29.3l-7.8-0.5l-17.2-28.5h-10.5v29H305v-62.3
			C312.7,235.9,321.6,234.4,329,235.3z M311,262.7h16.4c0.6,0,4.7-1.6,5.5-2c5.3-3.1,6.8-11.1,2.5-15.6c-1.1-1.1-6.1-3.8-7.5-3.8
			H311V262.7z"/>
		<polygon class="st0" points="395.9,235.3 395.9,241.2 363.7,241.2 363.7,262.1 393.8,262.1 393.8,268.1 363.7,268.1 363.7,291.7 
			397,291.7 397,297.6 357.3,297.6 357.3,235.3 		"/>
		<polygon class="st0" points="585.1,235.3 585.1,241.2 552.8,241.2 552.8,262.1 582.9,262.1 582.9,268.1 552.8,268.1 552.8,291.7 
			586.1,291.7 586.1,297.6 546.4,297.6 546.4,235.3 		"/>
		<path class="st0" d="M175.7,235.3v26.9l1.9-0.5l28.4-26.4h8.9l-31.2,28.2l32.8,34.1h-8.9c-9.5-9.8-18.9-19.8-28.5-29.5
			c-1.1-1.1-1.4-3.1-3.5-2.7v32.2h-6.4v-62.3L175.7,235.3L175.7,235.3z"/>
		<path class="st0" d="M639.9,235.3c-0.2,1.9,0.7,4.5-0.8,5.9H619v56.4h-6.4v-56.4h-21v-5.9L639.9,235.3L639.9,235.3z"/>
	</g>
</g>
</svg>
