<?xml version="1.0" encoding="utf-8"?>
<!-- Generator: Adobe Illustrator 27.3.1, SVG Export Plug-In . SVG Version: 6.00 Build 0)  -->
<svg version="1.1" id="Layer_1" xmlns="http://www.w3.org/2000/svg" xmlns:xlink="http://www.w3.org/1999/xlink" x="0px" y="0px"
	 viewBox="0 0 1080 420.8" style="enable-background:new 0 0 1080 420.8;" xml:space="preserve">
<style type="text/css">
	.st0{fill:#FFFFFF;}
</style>
<g>
	<path class="st0" d="M261.4,135.2c0.2,1.7,0,1.1-1,1.3c-20.5,6-43.6,8.4-64.3,14.3c-1.1,0.3-2.6,0.5-3.6,1
		c-3.4,1.8-10.6,18.7-13.7,22.7l8.4,27.6l-19.4,48.4l3.2,23.9l13.8,2.4L152,312.6l-26.9-7.8l-0.8-2.1l-32-4.2l-13.2-15.9
		c-0.3-1.4,0.6-1.1,1.6-0.9c6,0.8,12.3,3.2,18.4,3.8l26.9-11.5l-31.1-63.9l-20.7-19.6c-1.3-0.3-2.3,2.7-2.8,3.7
		c-5.4,11-10,22.5-15.2,33.6l2.6,47.8L32,234.9l-7-63.6c-0.6-1.7-3.4-1.4-3.8-1.8c-0.6-0.7-1.9-16-2.9-19.2c-1.4-4.6-5.2-9.6-7-14.2
		c-0.1-1.2,14.3-16.9,15.5-17.2c3.2-0.4,6.5,0.1,9.8-0.1c15.8-1.1,34.7-1.8,50.1-4c6.2-0.9,11.2-5.2,17.2-6.5l73.3,2.7L261.4,135.2z
		 M171.6,115.4l-67-2.7l-10.9,5l3.8,5.4l55.3,6.1l3.2-1.5L171.6,115.4z M243.6,135.9l-2.1-1.5l-62.3-18.2l-20.1,14.4l32.7,16.5
		L243.6,135.9z M50.8,122.7l32,8.5l9.5-6.8l-4.3-5.5L50.8,122.7z M79.2,134.5l-41.4-11.1c-2-0.3-7.8-0.5-9.4,0.2
		c-2.7,1.2-7.3,8.6-9.9,10.9l32.3,6.6l-27.4,10.5l1.7,13.8l30.3,5.1L79.2,134.5z M175.5,171.4l12-20.7l-32.3-16.5l-30.5-3.5
		l-22.3,12.4l0.4,1.4l13.3,8.4L175.5,171.4z M83.6,137.2l-24.1,35.4L72.9,184l14.8-13.6l7.2-24.5c0.3-0.9,0-1.2-0.6-1.8
		C93.9,143.6,84.2,137,83.6,137.2z M33.7,141.8l-15.2-2.6c-0.3,0.3,2.7,7.6,3.6,7.8C25.8,145.1,30.7,144.6,33.7,141.8z M166.3,173.5
		L113.8,157l-14.5-9.3L93,169.2l0.7,1.9l20.2,12.9L166.3,173.5z M53.5,174.8L30.5,171l-1.4,0.8l7.3,61.2l16,25.6
		c1.7,0.2,0.8-0.4,0.7-1.3c-2.4-21.1-1.2-40.1-0.3-61C53.1,189.1,52.9,181.9,53.5,174.8z M109.6,186.7c-4.2-1-16.4-12.2-19.4-11.9
		c-1.6,0.2-11.4,10.5-13.5,12.2c5.3,3.9,9.9,9.3,14.9,13.5c1.1,0.9,4,3.5,5.2,3.4L109.6,186.7z M165,245.4l17.2-43.3l-7.9-25.1
		L117.5,188L165,245.4z M56.1,215.7l13.7-28.1l-11.4-9.6L56.1,215.7z M161.7,249.4l-49.5-58.7L100,206.5l-0.2,2.1l37.8,50.7l1.3,0.6
		L161.7,249.4z M129.4,271.2c1.3,1.2,5.4-7.3,5-8.6l-23.5-31L129.4,271.2z M167.1,278.3l-3.4-25l-22.1,10.5l10.9,40.9l23.1-24.8
		L167.1,278.3z M148.5,307.5l-11.9-38.3c-5.6,9.5-4.9,21.2-6.6,31.9L148.5,307.5z M125.4,298.9l2.6-20.5l-28.2,11.8l-10.1-1.9
		l4.5,5.9L125.4,298.9z"/>
	<path class="st0" d="M305.6,174.8v69.3h36.3l0.7,6.6l32.4-75.8l7.9,0.2l33,76.3l-8.9-0.6l-8.2-19.4l-38.6-0.3l-9,20.4h-52.8v-76.6
		H305.6z M395.4,224.3L379.5,184l-17.2,40.3H395.4z"/>
	<polygon class="st0" points="795,174.8 840.9,239.5 840.9,174.8 848.8,174.8 848.8,251.4 839.2,251.4 793.3,186 793.3,251.4 
		785.4,251.4 785.4,174.8 	"/>
	<polygon class="st0" points="925.3,239.5 925.3,174.8 933.3,174.8 933.3,251.4 923.7,251.4 879.4,188.1 877.2,186 877.2,251.4 
		869.9,251.4 869.9,174.8 879.5,174.8 	"/>
	<path class="st0" d="M617.4,174.8c17.3,1.8,25.6,19.2,13.2,32.3l-7.6,4c18.1,0.9,23.1,23.5,9.6,34.3c-2.9,2.3-10.9,6-14.5,6h-29.4
		v-76.6C597.9,175.5,608.4,173.8,617.4,174.8z M596.7,208.5h18.2c0.5,0,4.8-1.3,5.6-1.6c9.4-4.1,10.4-17.4,1.6-22.7
		c-0.6-0.3-4.9-2.1-5.2-2.1h-20.1V208.5z M619.4,215.1c-6.8-1-15.7,0.7-22.8,0v29h20.8c3.9,0,10.8-4.3,12.8-7.7
		c2.9-4.9,1.9-13.9-2.7-17.6C626.1,217.6,621.2,215.3,619.4,215.1z"/>
	<path class="st0" d="M456.4,174.8c25.7,3,25,37.8-0.3,40.6l21.8,36H468l-20.8-35.6h-12.9v35.6h-7.9v-76.6
		C435.9,175.6,447.1,173.7,456.4,174.8z M434.3,208.5h20.1c0.4,0,4.7-1.5,5.4-1.9c9.1-4.4,9.6-18,0.5-22.5c-0.8-0.4-5.4-2.1-5.9-2.1
		h-20.1V208.5z"/>
	<path class="st0" d="M686.7,174.8c25.9,2.9,25.6,38.2-0.3,40.6l21.8,36l-9.6-0.7l-21.1-35h-12.9v35.6h-7.3v-76.6
		C666.7,175.6,677.6,173.8,686.7,174.8z M664.6,208.5h20.1c0.7,0,5.8-1.9,6.7-2.5c6.6-3.8,8.4-13.7,3.1-19.2
		c-1.3-1.4-7.5-4.7-9.2-4.7h-20.8V208.5z"/>
	<polygon class="st0" points="768.9,174.8 768.9,182.1 729.3,182.1 729.3,207.8 766.3,207.8 766.3,215.1 729.3,215.1 729.3,244.1 
		770.2,244.1 770.2,251.4 721.4,251.4 721.4,174.8 	"/>
	<polygon class="st0" points="1001.2,174.8 1001.2,182.1 961.6,182.1 961.6,207.8 998.6,207.8 998.6,215.1 961.6,215.1 961.6,244.1 
		1002.6,244.1 1002.6,251.4 953.7,251.4 953.7,174.8 	"/>
	<path class="st0" d="M498.3,174.8v33l2.3-0.6l34.9-32.4h10.9l-38.3,34.7l40.2,41.9h-10.9c-11.7-12.1-23.2-24.3-35-36.3
		c-1.4-1.4-1.7-3.8-4.3-3.3v39.6h-7.9v-76.6H498.3z"/>
	<path class="st0" d="M1068.6,174.8c-0.3,2.4,0.9,5.5-1,7.3h-24.8v69.3h-7.9v-69.3h-25.7v-7.3H1068.6z"/>
</g>
<g>
	<path d="M261.4-594c0.2,1.7,0,1.1-1,1.3c-20.5,6-43.6,8.4-64.3,14.3c-1.1,0.3-2.6,0.5-3.6,1c-3.4,1.8-10.6,18.7-13.7,22.7l8.4,27.6
		l-19.4,48.4l3.2,23.9l13.8,2.4L152-416.5l-26.9-7.8l-0.8-2.1l-32-4.2l-13.2-15.9c-0.3-1.4,0.6-1.1,1.6-0.9c6,0.8,12.3,3.2,18.4,3.8
		l26.9-11.5L94.9-519l-20.7-19.6c-1.3-0.3-2.3,2.7-2.8,3.7c-5.4,11-10,22.5-15.2,33.6l2.6,47.8L32-494.3l-7-63.6
		c-0.6-1.7-3.4-1.4-3.8-1.8c-0.6-0.7-1.9-16-2.9-19.2c-1.4-4.6-5.2-9.6-7-14.2c-0.1-1.2,14.3-16.9,15.5-17.2
		c3.2-0.4,6.5,0.1,9.8-0.1c15.8-1.1,34.7-1.8,50.1-4c6.2-0.9,11.2-5.2,17.2-6.5l73.3,2.7L261.4-594z M171.6-613.8l-67-2.7l-10.9,5
		l3.8,5.4l55.3,6.1l3.2-1.5L171.6-613.8z M243.6-593.3l-2.1-1.5l-62.3-18.2l-20.1,14.4l32.7,16.5L243.6-593.3z M50.8-606.5l32,8.5
		l9.5-6.8l-4.3-5.5L50.8-606.5z M79.2-594.6l-41.4-11.1c-2-0.3-7.8-0.5-9.4,0.2c-2.7,1.2-7.3,8.6-9.9,10.9l32.3,6.6l-27.4,10.5
		l1.7,13.8l30.3,5.1L79.2-594.6z M175.5-557.8l12-20.7L155.1-595l-30.5-3.5l-22.3,12.4l0.4,1.4l13.3,8.4L175.5-557.8z M83.6-592
		l-24.1,35.4l13.5,11.4l14.8-13.6l7.2-24.5c0.3-0.9,0-1.2-0.6-1.8C93.9-585.6,84.2-592.1,83.6-592z M33.7-587.4L18.5-590
		c-0.3,0.3,2.7,7.6,3.6,7.8C25.8-584.1,30.7-584.6,33.7-587.4z M166.3-555.7l-52.5-16.5l-14.5-9.3L93-560l0.7,1.9l20.2,12.9
		L166.3-555.7z M53.5-554.4l-22.9-3.8l-1.4,0.8l7.3,61.2l16,25.6c1.7,0.2,0.8-0.4,0.7-1.3c-2.4-21.1-1.2-40.1-0.3-61
		C53.1-540.1,52.9-547.3,53.5-554.4z M109.6-542.5c-4.2-1-16.4-12.2-19.4-11.9c-1.6,0.2-11.4,10.5-13.5,12.2
		c5.3,3.9,9.9,9.3,14.9,13.5c1.1,0.9,4,3.5,5.2,3.4L109.6-542.5z M165-483.8l17.2-43.3l-7.9-25.1l-56.8,10.9L165-483.8z M56.1-513.5
		l13.7-28.1l-11.4-9.6L56.1-513.5z M161.7-479.8l-49.5-58.7L100-522.7l-0.2,2.1l37.8,50.7l1.3,0.6L161.7-479.8z M129.4-458
		c1.3,1.2,5.4-7.3,5-8.6l-23.5-31L129.4-458z M167.1-450.9l-3.4-25l-22.1,10.5l10.9,40.9l23.1-24.8L167.1-450.9z M148.5-421.7
		L136.6-460c-5.6,9.5-4.9,21.2-6.6,31.9L148.5-421.7z M125.4-430.3l2.6-20.5L99.8-439l-10.1-1.9l4.5,5.9L125.4-430.3z"/>
	<path d="M305.6-554.4v69.3h36.3l0.7,6.6l32.4-75.8l7.9,0.2l33,76.3l-8.9-0.6l-8.2-19.4l-38.6-0.3l-9,20.4h-52.8v-76.6H305.6z
		 M395.4-504.9l-15.8-40.3l-17.2,40.3H395.4z"/>
	<polygon points="795,-554.4 840.9,-489.7 840.9,-554.4 848.8,-554.4 848.8,-477.8 839.2,-477.8 793.3,-543.2 793.3,-477.8 
		785.4,-477.8 785.4,-554.4 	"/>
	<polygon points="925.3,-489.7 925.3,-554.4 933.3,-554.4 933.3,-477.8 923.7,-477.8 879.4,-541.1 877.2,-543.2 877.2,-477.8 
		869.9,-477.8 869.9,-554.4 879.5,-554.4 	"/>
	<path d="M617.4-554.4c17.3,1.8,25.6,19.2,13.2,32.3l-7.6,4c18.1,0.9,23.1,23.5,9.6,34.3c-2.9,2.3-10.9,6-14.5,6h-29.4v-76.6
		C597.9-553.7,608.4-555.3,617.4-554.4z M596.7-520.7h18.2c0.5,0,4.8-1.3,5.6-1.6c9.4-4.1,10.4-17.4,1.6-22.7
		c-0.6-0.3-4.9-2.1-5.2-2.1h-20.1V-520.7z M619.4-514.1c-6.8-1-15.7,0.7-22.8,0v29h20.8c3.9,0,10.8-4.3,12.8-7.7
		c2.9-4.9,1.9-13.9-2.7-17.6C626.1-511.6,621.2-513.9,619.4-514.1z"/>
	<path d="M456.4-554.4c25.7,3,25,37.8-0.3,40.6l21.8,36H468l-20.8-35.6h-12.9v35.6h-7.9v-76.6C435.9-553.6,447.1-555.5,456.4-554.4z
		 M434.3-520.7h20.1c0.4,0,4.7-1.5,5.4-1.9c9.1-4.4,9.6-18,0.5-22.5c-0.8-0.4-5.4-2.1-5.9-2.1h-20.1V-520.7z"/>
	<path d="M686.7-554.4c25.9,2.9,25.6,38.2-0.3,40.6l21.8,36l-9.6-0.7l-21.1-35h-12.9v35.6h-7.3v-76.6
		C666.7-553.6,677.6-555.4,686.7-554.4z M664.6-520.7h20.1c0.7,0,5.8-1.9,6.7-2.5c6.6-3.8,8.4-13.7,3.1-19.2
		c-1.3-1.4-7.5-4.7-9.2-4.7h-20.8V-520.7z"/>
	<polygon points="768.9,-554.4 768.9,-547.1 729.3,-547.1 729.3,-521.4 766.3,-521.4 766.3,-514.1 729.3,-514.1 729.3,-485.1 
		770.2,-485.1 770.2,-477.8 721.4,-477.8 721.4,-554.4 	"/>
	<polygon points="1001.2,-554.4 1001.2,-547.1 961.6,-547.1 961.6,-521.4 998.6,-521.4 998.6,-514.1 961.6,-514.1 961.6,-485.1 
		1002.6,-485.1 1002.6,-477.8 953.7,-477.8 953.7,-554.4 	"/>
	<path d="M498.3-554.4v33l2.3-0.6l34.9-32.4h10.9l-38.3,34.6l40.2,41.9h-10.9c-11.7-12.1-23.2-24.3-35-36.3
		c-1.4-1.4-1.7-3.8-4.3-3.3v39.6h-7.9v-76.6H498.3z"/>
	<path d="M1068.6-554.4c-0.3,2.4,0.9,5.5-1,7.3h-24.8v69.3h-7.9v-69.3h-25.7v-7.3H1068.6z"/>
</g>
<g>
	<path d="M1701-125.4c0.2,1.7,0,1.1-1,1.3c-20.5,6-43.6,8.4-64.3,14.3c-1.1,0.3-2.6,0.5-3.6,1c-3.4,1.8-10.6,18.7-13.7,22.7
		l8.4,27.6l-19.4,48.4l3.2,23.9l13.8,2.4L1591.6,52l-26.9-7.8l-0.8-2.1l-32-4.2L1518.8,22c-0.3-1.4,0.6-1.1,1.6-0.9
		c6,0.8,12.3,3.2,18.4,3.8l26.9-11.5l-31.1-63.9L1513.8-70c-1.3-0.3-2.3,2.7-2.8,3.7c-5.4,11-10,22.5-15.2,33.6l2.6,47.8l-26.8-40.9
		l-7-63.6c-0.6-1.7-3.4-1.4-3.8-1.8c-0.6-0.7-1.9-16-2.9-19.2c-1.4-4.6-5.2-9.6-7-14.2c-0.1-1.2,14.3-16.9,15.5-17.2
		c3.2-0.4,6.5,0.1,9.8-0.1c15.8-1.1,34.7-1.8,50.1-4c6.2-0.9,11.2-5.2,17.2-6.5l73.3,2.7L1701-125.4z M1611.2-145.2l-67-2.7l-10.9,5
		l3.8,5.4l55.3,6.1l3.2-1.5L1611.2-145.2z M1683.2-124.8l-2.1-1.5l-62.3-18.2l-20.1,14.4l32.7,16.5L1683.2-124.8z M1490.4-138
		l32,8.5l9.5-6.8l-4.3-5.5L1490.4-138z M1518.8-126.1l-41.4-11.1c-2-0.3-7.8-0.5-9.4,0.2c-2.7,1.2-7.3,8.6-9.9,10.9l32.3,6.6
		L1463-109l1.7,13.8l30.3,5.1L1518.8-126.1z M1615.1-89.2l12-20.7l-32.3-16.5l-30.5-3.5l-22.3,12.4l0.4,1.4l13.3,8.4L1615.1-89.2z
		 M1523.2-123.5l-24.1,35.4l13.5,11.4l14.8-13.6l7.2-24.5c0.3-0.9,0-1.2-0.6-1.8C1533.5-117.1,1523.8-123.6,1523.2-123.5z
		 M1473.3-118.8l-15.2-2.6c-0.3,0.3,2.7,7.6,3.6,7.8C1465.4-115.6,1470.3-116.1,1473.3-118.8z M1605.9-87.2l-52.5-16.5l-14.5-9.3
		l-6.3,21.5l0.7,1.9l20.2,12.9L1605.9-87.2z M1493.1-85.9l-22.9-3.8l-1.4,0.8l7.3,61.2l16,25.6c1.7,0.2,0.8-0.4,0.7-1.3
		c-2.4-21.1-1.2-40.1-0.3-61C1492.7-71.5,1492.5-78.7,1493.1-85.9z M1549.2-74c-4.2-1-16.4-12.2-19.4-11.9
		c-1.6,0.2-11.4,10.5-13.5,12.2c5.3,3.9,9.9,9.3,14.9,13.5c1.1,0.9,4,3.5,5.2,3.4L1549.2-74z M1604.6-15.2l17.2-43.3l-7.9-25.1
		l-56.8,10.9L1604.6-15.2z M1495.7-44.9l13.7-28.1l-11.4-9.6L1495.7-44.9z M1601.3-11.3L1551.8-70l-12.2,15.8l-0.2,2.1l37.8,50.7
		l1.3,0.6L1601.3-11.3z M1569,10.5c1.3,1.2,5.4-7.3,5-8.6l-23.5-31L1569,10.5z M1606.7,17.6l-3.4-25l-22.1,10.5l10.9,40.9l23.1-24.8
		L1606.7,17.6z M1588.1,46.8l-11.9-38.3c-5.6,9.5-4.9,21.2-6.6,31.9L1588.1,46.8z M1565,38.2l2.6-20.5l-28.2,11.8l-10.1-1.9l4.5,5.9
		L1565,38.2z"/>
	<path d="M1745.2-85.9v69.3h36.3l0.7,6.6l32.4-75.8l7.9,0.2l33,76.3l-8.9-0.6l-8.2-19.4l-38.6-0.3l-9,20.4h-52.8v-76.6H1745.2z
		 M1835-36.4l-15.8-40.3L1802-36.4H1835z"/>
	<polygon points="2234.6,-85.9 2280.5,-21.2 2280.5,-85.9 2288.4,-85.9 2288.4,-9.3 2278.8,-9.3 2232.9,-74.6 2232.9,-9.3 
		2225,-9.3 2225,-85.9 	"/>
	<polygon points="2364.9,-21.2 2364.9,-85.9 2372.9,-85.9 2372.9,-9.3 2363.3,-9.3 2319,-72.6 2316.8,-74.6 2316.8,-9.3 
		2309.5,-9.3 2309.5,-85.9 2319.1,-85.9 	"/>
	<path d="M2057-85.9c17.3,1.8,25.6,19.2,13.2,32.3l-7.6,4c18.1,0.9,23.1,23.5,9.6,34.3c-2.9,2.3-10.9,6-14.5,6h-29.4v-76.6
		C2037.5-85.1,2048-86.8,2057-85.9z M2036.3-52.2h18.2c0.5,0,4.8-1.3,5.6-1.6c9.4-4.1,10.4-17.4,1.6-22.7c-0.6-0.3-4.9-2.1-5.2-2.1
		h-20.1V-52.2z M2059-45.6c-6.8-1-15.7,0.7-22.8,0v29h20.8c3.9,0,10.8-4.3,12.8-7.7c2.9-4.9,1.9-13.9-2.7-17.6
		C2065.7-43,2060.8-45.3,2059-45.6z"/>
	<path d="M1896-85.9c25.7,3,25,37.8-0.3,40.6l21.8,36h-9.9l-20.8-35.6h-12.9v35.6h-7.9v-76.6C1875.5-85,1886.7-87,1896-85.9z
		 M1873.9-52.2h20.1c0.4,0,4.7-1.5,5.4-1.9c9.1-4.4,9.6-18,0.5-22.5c-0.8-0.4-5.4-2.1-5.9-2.1h-20.1V-52.2z"/>
	<path d="M2126.3-85.9c25.9,2.9,25.6,38.2-0.3,40.6l21.8,36l-9.6-0.7l-21.1-35h-12.9v35.6h-7.3v-76.6
		C2106.3-85.1,2117.2-86.9,2126.3-85.9z M2104.2-52.2h20.1c0.7,0,5.8-1.9,6.7-2.5c6.6-3.8,8.4-13.7,3.1-19.2
		c-1.3-1.4-7.5-4.7-9.2-4.7h-20.8V-52.2z"/>
	<polygon points="2208.5,-85.9 2208.5,-78.6 2168.9,-78.6 2168.9,-52.9 2205.9,-52.9 2205.9,-45.6 2168.9,-45.6 2168.9,-16.6 
		2209.8,-16.6 2209.8,-9.3 2161,-9.3 2161,-85.9 	"/>
	<polygon points="2440.8,-85.9 2440.8,-78.6 2401.2,-78.6 2401.2,-52.9 2438.2,-52.9 2438.2,-45.6 2401.2,-45.6 2401.2,-16.6 
		2442.2,-16.6 2442.2,-9.3 2393.3,-9.3 2393.3,-85.9 	"/>
	<path d="M1937.9-85.9v33l2.3-0.6l34.9-32.4h10.9l-38.3,34.7l40.2,41.9h-10.9c-11.7-12.1-23.2-24.3-35-36.3
		c-1.4-1.4-1.7-3.8-4.3-3.3v39.6h-7.9v-76.6H1937.9z"/>
	<path d="M2508.2-85.9c-0.3,2.4,0.9,5.5-1,7.3h-24.8v69.3h-7.9v-69.3h-25.7v-7.3H2508.2z"/>
</g>
<g>
	<path d="M291.4,519c0.2,1.7,0,1.1-1,1.3c-20.5,6-43.6,8.4-64.3,14.3c-1.1,0.3-2.6,0.5-3.6,1c-3.4,1.8-10.6,18.7-13.7,22.7l8.4,27.6
		l-19.4,48.4l3.2,23.9l13.8,2.4L182,696.4l-26.9-7.8l-0.8-2.1l-32-4.2l-13.2-15.9c-0.3-1.4,0.6-1.1,1.6-0.9c6,0.8,12.3,3.2,18.4,3.8
		l26.9-11.5L125,594l-20.7-19.6c-1.3-0.3-2.3,2.7-2.8,3.7c-5.4,11-10,22.5-15.2,33.6l2.6,47.8L62,618.7L55,555
		c-0.6-1.7-3.4-1.4-3.8-1.8c-0.6-0.7-1.9-16-2.9-19.2c-1.4-4.6-5.2-9.6-7-14.2c-0.1-1.2,14.3-16.9,15.5-17.2
		c3.2-0.4,6.5,0.1,9.8-0.1c15.8-1.1,34.7-1.8,50.1-4c6.2-0.9,11.2-5.2,17.2-6.5l73.3,2.7L291.4,519z M201.6,499.2l-67-2.7l-10.9,5
		l3.8,5.4l55.3,6.1l3.2-1.5L201.6,499.2z M273.6,519.6l-2.1-1.5l-62.3-18.2l-20.1,14.4l32.7,16.5L273.6,519.6z M80.9,506.4l32,8.5
		l9.5-6.8l-4.3-5.5L80.9,506.4z M109.2,518.3l-41.4-11.1c-2-0.3-7.8-0.5-9.4,0.2c-2.7,1.2-7.3,8.6-9.9,10.9l32.3,6.6l-27.4,10.5
		l1.7,13.8l30.3,5.1L109.2,518.3z M205.5,555.2l12-20.7L185.2,518l-30.5-3.5l-22.3,12.4l0.4,1.4l13.3,8.4L205.5,555.2z M113.6,521
		l-24.1,35.4l13.5,11.4l14.8-13.6l7.2-24.5c0.3-0.9,0-1.2-0.6-1.8C124,527.3,114.2,520.8,113.6,521z M63.7,525.6l-15.2-2.6
		c-0.3,0.3,2.7,7.6,3.6,7.8C55.8,528.8,60.7,528.3,63.7,525.6z M196.4,557.2l-52.5-16.5l-14.5-9.3l-6.3,21.5l0.7,1.9l20.2,12.9
		L196.4,557.2z M83.5,558.6l-22.9-3.8l-1.4,0.8l7.3,61.2l16,25.6c1.7,0.2,0.8-0.4,0.7-1.3c-2.4-21.1-1.2-40.1-0.3-61
		C83.2,572.9,83,565.7,83.5,558.6z M139.6,570.5c-4.2-1-16.4-12.2-19.4-11.9c-1.6,0.2-11.4,10.5-13.5,12.2
		c5.3,3.9,9.9,9.3,14.9,13.5c1.1,0.9,4,3.5,5.2,3.4L139.6,570.5z M195,629.2l17.2-43.3l-7.9-25.1l-56.8,10.9L195,629.2z M86.2,599.5
		l13.7-28.1l-11.4-9.6L86.2,599.5z M191.7,633.1l-49.5-58.7L130,590.3l-0.2,2.1l37.8,50.7l1.3,0.6L191.7,633.1z M159.4,654.9
		c1.3,1.2,5.4-7.3,5-8.6l-23.5-31L159.4,654.9z M197.2,662.1l-3.4-25l-22.1,10.5l10.9,40.9l23.1-24.8L197.2,662.1z M178.5,691.2
		l-11.9-38.3c-5.6,9.5-4.9,21.2-6.6,31.9L178.5,691.2z M155.4,682.6l2.6-20.5l-28.2,11.8l-10.1-1.9l4.5,5.9L155.4,682.6z"/>
	<text transform="matrix(1 0 0 1 320.1531 622.5975)" style="fill:#231F20; font-family:'AvenirLTStd-Book'; font-size:105px;">LARK BRENNET</text>
</g>
</svg>
